<!-- Created with Inkscape (http://www.inkscape.org/) --><svg xmlns:inkscape="http://www.inkscape.org/namespaces/inkscape" xmlns:sodipodi="http://sodipodi.sourceforge.net/DTD/sodipodi-0.dtd" xmlns="http://www.w3.org/2000/svg" xmlns:svg="http://www.w3.org/2000/svg" width="48mm" height="48mm" viewBox="0 0 47.999993 47.999993" version="1.1" id="svg1" inkscape:version="1.4.3 (0d15f75, 2025-12-25)" sodipodi:docname="YuTianIcons.tar">
  <sodipodi:namedview id="namedview1" pagecolor="#ffffff" bordercolor="#000000" borderopacity="0.25" inkscape:showpageshadow="2" inkscape:pageopacity="0.0" inkscape:pagecheckerboard="true" inkscape:deskcolor="#d1d1d1" inkscape:document-units="mm" showgrid="true" inkscape:zoom="2.768771" inkscape:cx="31.060712" inkscape:cy="70.608944" inkscape:window-width="1609" inkscape:window-height="973" inkscape:window-x="250" inkscape:window-y="30" inkscape:window-maximized="0" inkscape:current-layer="layer11" inkscape:lockguides="false" labelstyle="default">
    <inkscape:grid id="grid14" units="mm" originx="0" originy="0" spacingx="0.99999998" spacingy="1" empcolor="#0099e5" empopacity="0.30196078" color="#0099e5" opacity="0.14901961" empspacing="5" enabled="true" visible="true"/>
  </sodipodi:namedview>
  <defs id="defs1">
    <rect x="264.56693" y="453.5433" width="245.6693" height="170.07874" id="rect29"/>
    <rect x="377.95276" y="302.36221" width="94.48819" height="37.795277" id="rect28"/>
    <rect x="283.46457" y="264.56693" width="396.8504" height="132.28346" id="rect27"/>
    <rect x="170.07874" y="359.05511" width="396.8504" height="94.48819" id="rect25"/>
  </defs>
  <g inkscape:groupmode="layer" id="layer11" inkscape:label="headphones" style="display:inline">
    <path style="display:inline;fill:none;fill-opacity:1;stroke:#1ce210;stroke-width:4;stroke-linecap:round;stroke-dasharray:none;stroke-opacity:1" id="path33" transform="matrix(1,0,0.01322787,0.99991251,0,0)" sodipodi:arc-type="arc" sodipodi:type="arc" sodipodi:cx="23.626507" sodipodi:cy="28.235807" sodipodi:rx="18" sodipodi:ry="20.001751" sodipodi:start="3.1415927" sodipodi:end="0" d="M 5.6265068,28.235807 A 18,20.001751 0 0 1 23.626507,8.2340565 a 18,20.001751 0 0 1 18,20.0017505" sodipodi:open="true"/>
    <path style="fill:none;fill-opacity:1;stroke:#1ce210;stroke-width:4;stroke-linecap:round;stroke-dasharray:none;stroke-opacity:1" id="path34" sodipodi:type="arc" sodipodi:cx="7.0000014" sodipodi:cy="34.47084" sodipodi:rx="4" sodipodi:ry="5" sodipodi:start="1.5707963" sodipodi:end="4.712389" sodipodi:arc-type="slice" d="m 7.0000014,39.47084 a 4,5 0 0 1 -3.4641016,-2.499999 4,5 0 0 1 0,-5.000001 4,5 0 0 1 3.4641016,-2.5 v 5 z"/>
    <path style="display:inline;fill:none;fill-opacity:1;stroke:#1ce210;stroke-width:4;stroke-linecap:round;stroke-dasharray:none;stroke-opacity:1" id="path34-2" sodipodi:type="arc" sodipodi:cx="-41.000008" sodipodi:cy="34.47084" sodipodi:rx="4" sodipodi:ry="5" sodipodi:start="1.5707963" sodipodi:end="4.712389" sodipodi:arc-type="slice" d="m -41.000008,39.47084 a 4,5 0 0 1 -3.464101,-2.499999 4,5 0 0 1 0,-5.000001 4,5 0 0 1 3.464101,-2.5 v 5 z" transform="scale(-1,1)"/>
  </g>
</svg>